<svg width="301.1731689453125" height="229.46489257812502" version="1.1" xmlns="http://www.w3.org/2000/svg">
<circle cx="301.1731689453125" cy="30" r="3" stroke="black" stroke-width="1" fill="black" />
<circle cx="116.17317199707031" cy="30" r="3" stroke="black" stroke-width="1" fill="black" />
<circle cx="286.1731689453125" cy="30" r="3" stroke="black" stroke-width="1" fill="black" />
<circle cx="0" cy="199.46489257812502" r="3" stroke="black" stroke-width="1" fill="black" />
<circle cx="6.1731719970703125" cy="199.46489257812502" r="3" stroke="black" stroke-width="1" fill="black" />
<circle cx="116.17317199707031" cy="199.46489257812502" r="3" stroke="black" stroke-width="1" fill="black" />
<circle cx="15" cy="199.46489257812502" r="3" stroke="black" stroke-width="1" fill="black" />
<rect x="121.7" y="211.70000000000002" width="12.8" height="12.8" style="fill:none;stroke-width:3;stroke:rgb(0,0,200)" />
<circle cx="116.17317199707031" cy="218.10000000000002" r="3" stroke="black" stroke-width="1" fill="black" />
<rect x="121.7" y="211.70000000000002" width="12.8" height="12.8" style="fill:none;stroke-width:3;stroke:rgb(0,0,200)" />
<circle cx="128.1" cy="218.10000000000002" r="3" stroke="black" stroke-width="1" fill="black" />
<rect x="150.5" y="211.60000000000002" width="12.8" height="12.8" style="fill:none;stroke-width:3;stroke:rgb(0,0,200)" />
<circle cx="156.9" cy="199.46489257812502" r="3" stroke="black" stroke-width="1" fill="black" />
<rect x="150.5" y="211.60000000000002" width="12.8" height="12.8" style="fill:none;stroke-width:3;stroke:rgb(0,0,200)" />
<circle cx="156.9" cy="218" r="3" stroke="black" stroke-width="1" fill="black" />
<rect x="128.70000000000002" y="211.60000000000002" width="12.8" height="12.8" style="fill:none;stroke-width:3;stroke:rgb(0,0,200)" />
<circle cx="135.1" cy="199.46489257812502" r="3" stroke="black" stroke-width="1" fill="black" />
<rect x="128.70000000000002" y="211.60000000000002" width="12.8" height="12.8" style="fill:none;stroke-width:3;stroke:rgb(0,0,200)" />
<circle cx="135.1" cy="218" r="3" stroke="black" stroke-width="1" fill="black" />
<rect x="143.6" y="211.70000000000002" width="12.8" height="12.8" style="fill:none;stroke-width:3;stroke:rgb(0,0,200)" />
<circle cx="150" cy="199.46489257812502" r="3" stroke="black" stroke-width="1" fill="black" />
<rect x="143.6" y="211.70000000000002" width="12.8" height="12.8" style="fill:none;stroke-width:3;stroke:rgb(0,0,200)" />
<circle cx="150" cy="218.10000000000002" r="3" stroke="black" stroke-width="1" fill="black" />
<rect x="132.3" y="109.30000000000001" width="12.8" height="12.8" style="fill:none;stroke-width:3;stroke:rgb(0,0,200)" />
<circle cx="116.17317199707031" cy="115.7" r="3" stroke="black" stroke-width="1" fill="black" />
<rect x="132.3" y="109.30000000000001" width="12.8" height="12.8" style="fill:none;stroke-width:3;stroke:rgb(0,0,200)" />
<circle cx="138.70000000000002" cy="115.7" r="3" stroke="black" stroke-width="1" fill="black" />
<rect x="139.4" y="109.2" width="12.8" height="12.8" style="fill:none;stroke-width:3;stroke:rgb(0,0,200)" />
<circle cx="116.17317199707031" cy="115.60000000000001" r="3" stroke="black" stroke-width="1" fill="black" />
<rect x="139.4" y="109.2" width="12.8" height="12.8" style="fill:none;stroke-width:3;stroke:rgb(0,0,200)" />
<circle cx="145.8" cy="115.60000000000001" r="3" stroke="black" stroke-width="1" fill="black" />
<rect x="168.10000000000002" y="109.2" width="12.8" height="12.8" style="fill:none;stroke-width:3;stroke:rgb(0,0,200)" />
<circle cx="174.5" cy="115.60000000000001" r="3" stroke="black" stroke-width="1" fill="black" />
<rect x="161.10000000000002" y="109.10000000000001" width="12.8" height="12.8" style="fill:none;stroke-width:3;stroke:rgb(0,0,200)" />
<circle cx="167.5" cy="115.60000000000001" r="3" stroke="black" stroke-width="1" fill="black" />
<rect x="189.5" y="108.9" width="12.8" height="12.8" style="fill:none;stroke-width:3;stroke:rgb(0,0,200)" />
<circle cx="116.17317199707031" cy="115.30000000000001" r="3" stroke="black" stroke-width="1" fill="black" />
<rect x="189.5" y="108.9" width="12.8" height="12.8" style="fill:none;stroke-width:3;stroke:rgb(0,0,200)" />
<circle cx="195.9" cy="115.30000000000001" r="3" stroke="black" stroke-width="1" fill="black" />
<rect x="196.10000000000002" y="109" width="12.8" height="12.8" style="fill:none;stroke-width:3;stroke:rgb(0,0,200)" />
<circle cx="286.1731689453125" cy="115.4" r="3" stroke="black" stroke-width="1" fill="black" />
<rect x="196.10000000000002" y="109" width="12.8" height="12.8" style="fill:none;stroke-width:3;stroke:rgb(0,0,200)" />
<circle cx="202.5" cy="115.4" r="3" stroke="black" stroke-width="1" fill="black" />
<rect x="136.70000000000002" y="211.9" width="12.8" height="12.8" style="fill:none;stroke-width:3;stroke:rgb(0,0,200)" />
<circle cx="143.1" cy="199.46489257812502" r="3" stroke="black" stroke-width="1" fill="black" />
<rect x="136.70000000000002" y="211.9" width="12.8" height="12.8" style="fill:none;stroke-width:3;stroke:rgb(0,0,200)" />
<circle cx="143.1" cy="218.3" r="3" stroke="black" stroke-width="1" fill="black" />
<rect x="154.20000000000002" y="109.30000000000001" width="12.8" height="12.8" style="fill:none;stroke-width:3;stroke:rgb(0,0,200)" />
<circle cx="160.60000000000002" cy="115.60000000000001" r="3" stroke="black" stroke-width="1" fill="black" />
<rect x="178.60000000000002" y="59.400000000000006" width="12.8" height="12.8" style="fill:none;stroke-width:3;stroke:rgb(0,200,0)" />
<circle cx="185" cy="30" r="3" stroke="black" stroke-width="1" fill="black" />
<rect x="178.60000000000002" y="59.400000000000006" width="12.8" height="12.8" style="fill:none;stroke-width:3;stroke:rgb(0,200,0)" />
<circle cx="185" cy="65.8" r="3" stroke="black" stroke-width="1" fill="black" />
<line x1="185" y1="30" x2="185" y2="65.8" stroke-dasharray="10,10" style="stroke:rgb(255,0,0);stroke-width:2;" />
<line x1="286.1731689453125" y1="30" x2="185" y2="30" stroke-dasharray="10,10" style="stroke:rgb(255,0,0);stroke-width:2;" />
<line x1="301.1731689453125" y1="30" x2="286.1731689453125" y2="30" stroke-dasharray="10,10" style="stroke:rgb(255,0,0);stroke-width:2;" />
<line x1="286.1731689453125" y1="115.4" x2="202.5" y2="115.4" stroke-dasharray="10,10" style="stroke:rgb(255,0,0);stroke-width:2;" />
<line x1="286.1731689453125" y1="30" x2="286.1731689453125" y2="115.4" stroke-dasharray="10,10" style="stroke:rgb(255,0,0);stroke-width:2;" />
<line x1="116.17317199707031" y1="115.7" x2="138.70000000000002" y2="115.7" stroke-dasharray="10,10" style="stroke:rgb(255,0,0);stroke-width:2;" />
<line x1="116.17317199707031" y1="115.7" x2="116.17317199707031" y2="115.60000000000001" stroke-dasharray="10,10" style="stroke:rgb(255,0,0);stroke-width:2;" />
<line x1="116.17317199707031" y1="115.60000000000001" x2="116.17317199707031" y2="115.30000000000001" stroke-dasharray="10,10" style="stroke:rgb(255,0,0);stroke-width:2;" />
<line x1="116.17317199707031" y1="30" x2="116.17317199707031" y2="115.30000000000001" stroke-dasharray="10,10" style="stroke:rgb(255,0,0);stroke-width:2;" />
<line x1="116.17317199707031" y1="30" x2="185" y2="30" stroke-dasharray="10,10" style="stroke:rgb(255,0,0);stroke-width:2;" />
<line x1="116.17317199707031" y1="115.60000000000001" x2="145.8" y2="115.60000000000001" stroke-dasharray="10,10" style="stroke:rgb(255,0,0);stroke-width:2;" />
<line x1="116.17317199707031" y1="115.60000000000001" x2="160.60000000000002" y2="115.60000000000001" stroke-dasharray="10,10" style="stroke:rgb(255,0,0);stroke-width:2;" />
<line x1="167.5" y1="115.60000000000001" x2="160.60000000000002" y2="115.60000000000001" stroke-dasharray="10,10" style="stroke:rgb(255,0,0);stroke-width:2;" />
<line x1="174.5" y1="115.60000000000001" x2="167.5" y2="115.60000000000001" stroke-dasharray="10,10" style="stroke:rgb(255,0,0);stroke-width:2;" />
<line x1="116.17317199707031" y1="115.30000000000001" x2="195.9" y2="115.30000000000001" stroke-dasharray="10,10" style="stroke:rgb(255,0,0);stroke-width:2;" />
<line x1="116.17317199707031" y1="218.10000000000002" x2="128.1" y2="218.10000000000002" stroke-dasharray="10,10" style="stroke:rgb(255,0,0);stroke-width:2;" />
<line x1="116.17317199707031" y1="199.46489257812502" x2="116.17317199707031" y2="218.10000000000002" stroke-dasharray="10,10" style="stroke:rgb(255,0,0);stroke-width:2;" />
<line x1="116.17317199707031" y1="199.46489257812502" x2="116.17317199707031" y2="115.7" stroke-dasharray="10,10" style="stroke:rgb(255,0,0);stroke-width:2;" />
<line x1="135.1" y1="199.46489257812502" x2="135.1" y2="218" stroke-dasharray="10,10" style="stroke:rgb(255,0,0);stroke-width:2;" />
<line x1="116.17317199707031" y1="199.46489257812502" x2="135.1" y2="199.46489257812502" stroke-dasharray="10,10" style="stroke:rgb(255,0,0);stroke-width:2;" />
<line x1="143.1" y1="199.46489257812502" x2="143.1" y2="218.3" stroke-dasharray="10,10" style="stroke:rgb(255,0,0);stroke-width:2;" />
<line x1="135.1" y1="199.46489257812502" x2="143.1" y2="199.46489257812502" stroke-dasharray="10,10" style="stroke:rgb(255,0,0);stroke-width:2;" />
<line x1="150" y1="199.46489257812502" x2="150" y2="218.10000000000002" stroke-dasharray="10,10" style="stroke:rgb(255,0,0);stroke-width:2;" />
<line x1="150" y1="199.46489257812502" x2="143.1" y2="199.46489257812502" stroke-dasharray="10,10" style="stroke:rgb(255,0,0);stroke-width:2;" />
<line x1="156.9" y1="199.46489257812502" x2="156.9" y2="218" stroke-dasharray="10,10" style="stroke:rgb(255,0,0);stroke-width:2;" />
<line x1="156.9" y1="199.46489257812502" x2="150" y2="199.46489257812502" stroke-dasharray="10,10" style="stroke:rgb(255,0,0);stroke-width:2;" />
<line x1="0" y1="199.46489257812502" x2="6.1731719970703125" y2="199.46489257812502" stroke-dasharray="10,10" style="stroke:rgb(255,0,0);stroke-width:2;" />
<line x1="6.1731719970703125" y1="199.46489257812502" x2="15" y2="199.46489257812502" stroke-dasharray="10,10" style="stroke:rgb(255,0,0);stroke-width:2;" />
<line x1="116.17317199707031" y1="199.46489257812502" x2="15" y2="199.46489257812502" stroke-dasharray="10,10" style="stroke:rgb(255,0,0);stroke-width:2;" />
</svg>
