<svg width="301.1731689453125" height="229.46489257812502" version="1.1" xmlns="http://www.w3.org/2000/svg">
<rect width="301.1731689453125" height="229.46489257812502" style="fill:rgb(240,240,240);stroke-width:3;stroke:rgb(0,0,0)" />
<rect x="121.7" y="211.70000000000002" width="12.8" height="12.8" style="fill:none;stroke-width:3;stroke:rgb(0,0,200)" />
<rect x="150.5" y="211.60000000000002" width="12.8" height="12.8" style="fill:none;stroke-width:3;stroke:rgb(0,0,200)" />
<rect x="128.70000000000002" y="211.60000000000002" width="12.8" height="12.8" style="fill:none;stroke-width:3;stroke:rgb(0,0,200)" />
<rect x="143.6" y="211.70000000000002" width="12.8" height="12.8" style="fill:none;stroke-width:3;stroke:rgb(0,0,200)" />
<rect x="132.3" y="109.30000000000001" width="12.8" height="12.8" style="fill:none;stroke-width:3;stroke:rgb(0,0,200)" />
<rect x="139.4" y="109.2" width="12.8" height="12.8" style="fill:none;stroke-width:3;stroke:rgb(0,0,200)" />
<rect x="168.10000000000002" y="109.2" width="12.8" height="12.8" style="fill:none;stroke-width:3;stroke:rgb(0,0,200)" />
<rect x="161.10000000000002" y="109.10000000000001" width="12.8" height="12.8" style="fill:none;stroke-width:3;stroke:rgb(0,0,200)" />
<rect x="189.5" y="108.9" width="12.8" height="12.8" style="fill:none;stroke-width:3;stroke:rgb(0,0,200)" />
<rect x="196.10000000000002" y="109" width="12.8" height="12.8" style="fill:none;stroke-width:3;stroke:rgb(0,0,200)" />
<rect x="136.70000000000002" y="211.9" width="12.8" height="12.8" style="fill:none;stroke-width:3;stroke:rgb(0,0,200)" />
<rect x="154.20000000000002" y="109.30000000000001" width="12.8" height="12.8" style="fill:none;stroke-width:3;stroke:rgb(0,0,200)" />
<rect x="178.60000000000002" y="59.400000000000006" width="12.8" height="12.8" style="fill:none;stroke-width:3;stroke:rgb(0,200,0)" />
<line x1="6.1731719970703125" y1="0" x2="6.1731719970703125" y2="229.46489257812502" stroke-dasharray="10,10" style="stroke:rgb(255,0,0);stroke-width:2;" />
<line x1="116.17317199707031" y1="0" x2="116.17317199707031" y2="229.46489257812502" stroke-dasharray="10,10" style="stroke:rgb(255,0,0);stroke-width:2;" />
<rect x="21.173171997070312" y="24.464892578125003" width="80" height="200" style="fill:rgb(200,200,100);stroke-width:3;stroke:rgb(0,0,0)" />
<line x1="15" y1="0" x2="15" y2="229.46489257812502" stroke-dasharray="10,10" style="stroke:rgb(255,0,0);stroke-width:2;" />
<line x1="286.1731689453125" y1="0" x2="286.1731689453125" y2="229.46489257812502" stroke-dasharray="10,10" style="stroke:rgb(255,0,0);stroke-width:2;" />
<line x1="0" y1="30" x2="301.1731689453125" y2="30" stroke-dasharray="10,10" style="stroke:rgb(255,0,0);stroke-width:2;" />
<line x1="0" y1="199.46489257812502" x2="301.1731689453125" y2="199.46489257812502" stroke-dasharray="10,10" style="stroke:rgb(255,0,0);stroke-width:2;" />
</svg>
